<svg id="Layer_1" data-name="Layer 1" xmlns="http://www.w3.org/2000/svg" xmlns:xlink="http://www.w3.org/1999/xlink" viewBox="0 0 618.05 194.55"><defs><style>.cls-1{fill:url(#linear-gradient);}.cls-2{fill:#f0f0f0;}</style><linearGradient id="linear-gradient" y1="97.28" x2="235.28" y2="97.28" gradientUnits="userSpaceOnUse"><stop offset="0" stop-color="#ee247c"/><stop offset="1" stop-color="#fe77aa"/></linearGradient></defs><path class="cls-1" d="M185.37,13.59a4.52,4.52,0,0,0-.29-1.62l8.36,8.37a3.77,3.77,0,0,1,1.1,2.66V37a3.77,3.77,0,0,0,3.77,3.77h14a3.77,3.77,0,0,1,2.67,1.1l8.37,8.37a4.34,4.34,0,0,0-1.63-.3h-25a11.31,11.31,0,0,1-11.32-11.31ZM38.59,49.92A11.31,11.31,0,0,0,49.91,38.61v-25a4.13,4.13,0,0,1,.3-1.62l-8.36,8.37A3.73,3.73,0,0,0,40.75,23V37A3.77,3.77,0,0,1,37,40.75H23a3.81,3.81,0,0,0-2.67,1.1L12,50.22a4.28,4.28,0,0,1,1.62-.3Zm117,65.58a13.39,13.39,0,0,0,11.76,6.73H224a11.32,11.32,0,0,0,11.31-11.32V63.74a3.77,3.77,0,0,0-1.1-2.66l-8.36-8.36a4.23,4.23,0,0,1,.29,1.61v54.32a4.44,4.44,0,0,1-4.41,4.42H167.38a4.29,4.29,0,0,1-3.12-1.3,4.22,4.22,0,0,1-1.28-3.12v-25a11.33,11.33,0,0,0-11.32-11.31h-25a4.42,4.42,0,0,1-4.4-4.42V13.59a4.25,4.25,0,0,1,1.29-3.11,4.33,4.33,0,0,1,3.11-1.31H181a4.58,4.58,0,0,1,1.63.3L174.22,1.1A3.84,3.84,0,0,0,171.55,0h-46.1a4.34,4.34,0,0,0-3.76,2.17l-1.4,2.42-.77,1.33a2.18,2.18,0,0,1-3.76,0L115,4.59,113.6,2.17A4.35,4.35,0,0,0,109.84,0H63.73a3.78,3.78,0,0,0-2.66,1.1L52.7,9.47a4.54,4.54,0,0,1,1.63-.3h54.31a4.46,4.46,0,0,1,4.42,4.42V67.91a4.44,4.44,0,0,1-4.42,4.42h-25A11.31,11.31,0,0,0,72.32,83.64v25a4.42,4.42,0,0,1-4.41,4.42H13.58a4.21,4.21,0,0,1-3.1-1.3,4.26,4.26,0,0,1-1.32-3.12V54.33a4.23,4.23,0,0,1,.3-1.61L1.1,61.08A3.77,3.77,0,0,0,0,63.74v47.17a11.32,11.32,0,0,0,11.32,11.32H67.91a13.42,13.42,0,0,0,11.76-6.73,13.47,13.47,0,0,0,1.82-6.85V85.27a3.77,3.77,0,0,1,3.77-3.77h23.38a4.46,4.46,0,0,1,4.42,4.41v54.33a4.2,4.2,0,0,1-1.3,3.11,4.31,4.31,0,0,1-3.12,1.32h-25A11.31,11.31,0,0,0,72.32,156v25a4.44,4.44,0,0,1-4.41,4.42H13.58a4.22,4.22,0,0,1-3.1-1.31A4.22,4.22,0,0,1,9.16,181V126.66a4.36,4.36,0,0,1,.3-1.62L1.1,133.4A3.76,3.76,0,0,0,0,136.07v47.16a11.32,11.32,0,0,0,11.32,11.32H67.91A13.49,13.49,0,0,0,81.49,181V157.59a3.77,3.77,0,0,1,3.77-3.78H150a3.79,3.79,0,0,1,3.78,3.78V181a13.57,13.57,0,0,0,6.73,11.78,13.42,13.42,0,0,0,6.85,1.79H224a11.31,11.31,0,0,0,11.31-11.31V136.07a3.76,3.76,0,0,0-1.1-2.67L225.82,125a4.35,4.35,0,0,1,.29,1.62V181a4.16,4.16,0,0,1-1.3,3.11,4.24,4.24,0,0,1-3.11,1.31H167.38a4.39,4.39,0,0,1-3.3-1.49A4.32,4.32,0,0,1,163,181V156a11.32,11.32,0,0,0-11.32-11.31h-25a4.43,4.43,0,0,1-4.4-4.43V85.91a4.23,4.23,0,0,1,1.29-3.1,4.29,4.29,0,0,1,3.11-1.31H150a3.77,3.77,0,0,1,3.77,3.77v23.38A13.28,13.28,0,0,0,155.62,115.5Z"/><path class="cls-2" d="M265.14,52.72H304a10.09,10.09,0,0,1,5.25,1.42A11.35,11.35,0,0,1,313.06,58a10.06,10.06,0,0,1,1.46,5.32v9.63a13.87,13.87,0,0,1-.1,1.75,6.6,6.6,0,0,1-.4,1.53,12.78,12.78,0,0,1,1.79,3.14,9.66,9.66,0,0,1,.71,3.57V93.53a10,10,0,0,1-1.46,5.28,11.06,11.06,0,0,1-3.86,3.86,10.15,10.15,0,0,1-5.31,1.42H265.14Zm38.18,19.69V63.85H276.2v8.56Zm2,20.55V83.54H276.2V93Z"/><path class="cls-2" d="M368.85,85.75a11.09,11.09,0,0,0,3.85-3.85,10.1,10.1,0,0,0,1.46-5.28V63.35a10.1,10.1,0,0,0-1.46-5.28,11.2,11.2,0,0,0-3.85-3.86,10.21,10.21,0,0,0-5.32-1.42H322.79v51.3h11.06V87.25l14.65,0,14.17,16.87h11.42v-3.78L363,87.18h.56A10.13,10.13,0,0,0,368.85,85.75Zm-35-21.9H363v12.2H333.85Z"/><path class="cls-2" d="M380.33,63.28A10.21,10.21,0,0,1,381.75,58a11,11,0,0,1,3.86-3.82,10.22,10.22,0,0,1,5.28-1.42h30.18a10.19,10.19,0,0,1,5.32,1.42A11.26,11.26,0,0,1,430.24,58a10,10,0,0,1,1.47,5.32v40.81H420.5V87.54H391.39v16.55H380.33ZM420.5,76.41V63.85H391.39V76.41Z"/><path class="cls-2" d="M438.23,104.09V52.72h11.41L478.4,87V52.72h11.2v51.37H478.19L449.29,69.7v34.39Z"/><path class="cls-2" d="M493.85,104.09V52.72h10.92v51.37Z"/><path class="cls-2" d="M509,63.28A10.13,10.13,0,0,1,510.4,58a10.84,10.84,0,0,1,3.85-3.82,10.25,10.25,0,0,1,5.28-1.42h30.18A10.19,10.19,0,0,1,555,54.14,11.26,11.26,0,0,1,558.88,58a10,10,0,0,1,1.47,5.32v40.81H549.14V87.54H520v16.55H509Zm40.17,13.13V63.85H520V76.41Z"/><path class="cls-2" d="M577.37,104.09a10.15,10.15,0,0,1-5.31-1.42,10.84,10.84,0,0,1-3.82-3.82,10.19,10.19,0,0,1-1.43-5.32V63.28A10.22,10.22,0,0,1,568.24,58a10.92,10.92,0,0,1,3.82-3.82,10.15,10.15,0,0,1,5.31-1.42h40.68V63.85H580.23a2.46,2.46,0,0,0-1.75.57,2.33,2.33,0,0,0-.61,1.78V90.61A2.12,2.12,0,0,0,580.23,93h37.82v11.13Z"/><path class="cls-2" d="M612.48,136.17a5.44,5.44,0,0,1-2.16-.43,5.66,5.66,0,0,1-1.77-1.2,5.59,5.59,0,0,1-1.2-1.78,5.62,5.62,0,0,1,0-4.31,5.67,5.67,0,0,1,3-3,5.55,5.55,0,0,1,4.33,0,5.67,5.67,0,0,1,3,3,5.55,5.55,0,0,1-1.2,6.09,5.66,5.66,0,0,1-1.77,1.2A5.46,5.46,0,0,1,612.48,136.17Zm0-1.35a4,4,0,0,0,2.12-.57,4.21,4.21,0,0,0,1.53-1.52,4.25,4.25,0,0,0,0-4.25A4.37,4.37,0,0,0,614.6,127a4,4,0,0,0-2.12-.57,4.08,4.08,0,0,0-2.12.57,4.37,4.37,0,0,0-1.53,1.52,4.25,4.25,0,0,0,0,4.25,4.21,4.21,0,0,0,1.53,1.52A4.08,4.08,0,0,0,612.48,134.82Zm-2-1.66V128h2.6a1.62,1.62,0,0,1,.7.18,1.73,1.73,0,0,1,.64.54,1.51,1.51,0,0,1,.26.91,1.65,1.65,0,0,1-.27,1,2.08,2.08,0,0,1-.66.6,1.68,1.68,0,0,1-.74.2h-1.87v-.85h1.52a.78.78,0,0,0,.5-.23.83.83,0,0,0,.27-.68.68.68,0,0,0-.27-.63.94.94,0,0,0-.48-.16h-1.05v4.29Zm3.15,0-1.26-2.43h1.25l1.27,2.43Z"/><path class="cls-2" d="M265.14,167.56V125h4.78v37.74H307.6v4.78Z"/><path class="cls-2" d="M311.68,167.56V125.1h38.74v4.78h-34v14h27.3v4.84h-27.3v14h34v4.78Z"/><path class="cls-2" d="M355.85,132.18a7,7,0,0,1,7.08-7.08h28.31a6.94,6.94,0,0,1,3.56.94,7,7,0,0,1,2.57,2.57,7,7,0,0,1,.94,3.57v35.38h-4.77V152.05H360.63v15.51h-4.78Zm37.69,15.09V132.18a2.25,2.25,0,0,0-.68-1.63,2.22,2.22,0,0,0-1.62-.67H362.93a2.2,2.2,0,0,0-1.62.67,2.25,2.25,0,0,0-.68,1.63v15.09Z"/><path class="cls-2" d="M442.91,150.78a7.35,7.35,0,0,0,2.57-2.57,6.88,6.88,0,0,0,.94-3.53V132.23a6.94,6.94,0,0,0-.94-3.54,7.33,7.33,0,0,0-2.57-2.56,6.79,6.79,0,0,0-3.57-1H404v42.4h4.78V151.75h17.82l13.25,15.81h6.31v-.06l-13.31-15.75h6.53A6.79,6.79,0,0,0,442.91,150.78ZM411,146.92a2.27,2.27,0,0,1-1.62-.65,2.1,2.1,0,0,1-.68-1.59V132.23a2.18,2.18,0,0,1,.68-1.62,2.21,2.21,0,0,1,1.62-.68h28.3a2.21,2.21,0,0,1,1.62.68,2.18,2.18,0,0,1,.68,1.62v12.45a2.1,2.1,0,0,1-.68,1.59,2.27,2.27,0,0,1-1.62.65Z"/><path class="cls-2" d="M451.71,167.56V125.1h6.55l31.14,37v-37h4.77v42.46h-6.54l-31.14-37v37Z"/><path class="cls-2" d="M500,167.56V125.1h4.84v42.46Z"/><path class="cls-2" d="M510.67,167.56V125.1h6.55l31.13,37v-37h4.78v42.46h-6.55l-31.13-37v37Z"/><path class="cls-2" d="M565.74,167.56a7,7,0,0,1-7.08-7.08v-28.3a7,7,0,0,1,7.08-7.08H594a7,7,0,0,1,3.57.94,7,7,0,0,1,2.57,2.57,7,7,0,0,1,.94,3.57v1.71h-4.78v-1.71a2.29,2.29,0,0,0-2.3-2.3h-28.3a2.2,2.2,0,0,0-1.62.67,2.25,2.25,0,0,0-.68,1.63v28.3a2.32,2.32,0,0,0,2.3,2.3H594a2.25,2.25,0,0,0,1.63-.68,2.2,2.2,0,0,0,.67-1.62V150H585.85v-4.83h15.27v15.33a7,7,0,0,1-7.08,7.08Z"/></svg>